<?xml version="1.0" encoding="UTF-8" standalone="no"?>
<!-- Created with Inkscape (http://www.inkscape.org/) -->

<svg
   xmlns:dc="http://purl.org/dc/elements/1.1/"
   xmlns:cc="http://creativecommons.org/ns#"
   xmlns:rdf="http://www.w3.org/1999/02/22-rdf-syntax-ns#"
   xmlns:svg="http://www.w3.org/2000/svg"
   xmlns="http://www.w3.org/2000/svg"
   xmlns:sodipodi="http://sodipodi.sourceforge.net/DTD/sodipodi-0.dtd"
   xmlns:inkscape="http://www.inkscape.org/namespaces/inkscape"
   id="svg3003"
   version="1.1"
   inkscape:version="0.48.2 r9819"
   width="230.2505"
   height="23.934875"
   xml:space="preserve"
   sodipodi:docname="crucial.svg"><metadata
     id="metadata3009"><rdf:RDF><cc:Work
         rdf:about=""><dc:format>image/svg+xml</dc:format><dc:type
           rdf:resource="http://purl.org/dc/dcmitype/StillImage" /><dc:title></dc:title></cc:Work></rdf:RDF></metadata><defs
     id="defs3007"><clipPath
       clipPathUnits="userSpaceOnUse"
       id="clipPath3017"><path
         d="m 0,0 1190.551,0 0,420.945 L 0,420.945 0,0 z"
         id="path3019"
         inkscape:connector-curvature="0" /></clipPath><clipPath
       clipPathUnits="userSpaceOnUse"
       id="clipPath3025"><path
         d="m -19.6648,432.174 1261.1348,0 0,-443.4029 -1261.1348,0 0,443.4029 z"
         id="path3027"
         inkscape:connector-curvature="0" /></clipPath><clipPath
       clipPathUnits="userSpaceOnUse"
       id="clipPath3043"><path
         d="m -9.50391,430.449 1209.56391,0 0,-444.9136 -1209.56391,0 0,444.9136 z"
         id="path3045"
         inkscape:connector-curvature="0" /></clipPath><clipPath
       clipPathUnits="userSpaceOnUse"
       id="clipPath3137"><path
         d="m 0,0 1190.551,0 0,420.945 L 0,420.945 0,0 z"
         id="path3139"
         inkscape:connector-curvature="0" /></clipPath><clipPath
       clipPathUnits="userSpaceOnUse"
       id="clipPath3249"><path
         d="m 0,0 1190.551,0 0,420.945 L 0,420.945 0,0 z"
         id="path3251"
         inkscape:connector-curvature="0" /></clipPath><clipPath
       clipPathUnits="userSpaceOnUse"
       id="clipPath3273"><path
         d="m 0,0 1190.551,0 0,420.945 L 0,420.945 0,0 z"
         id="path3275"
         inkscape:connector-curvature="0" /></clipPath><clipPath
       clipPathUnits="userSpaceOnUse"
       id="clipPath3305"><path
         d="m 0,0 1190.551,0 0,420.945 L 0,420.945 0,0 z"
         id="path3307"
         inkscape:connector-curvature="0" /></clipPath><clipPath
       clipPathUnits="userSpaceOnUse"
       id="clipPath3325"><path
         d="m 0,0 1190.551,0 0,420.945 L 0,420.945 0,0 z"
         id="path3327"
         inkscape:connector-curvature="0" /></clipPath></defs><sodipodi:namedview
     pagecolor="#ffffff"
     bordercolor="#666666"
     borderopacity="1"
     objecttolerance="10"
     gridtolerance="10"
     guidetolerance="10"
     inkscape:pageopacity="0"
     inkscape:pageshadow="2"
     inkscape:window-width="1108"
     inkscape:window-height="668"
     id="namedview3005"
     showgrid="false"
     fit-margin-top="0"
     fit-margin-left="0"
     fit-margin-right="0"
     fit-margin-bottom="0"
     inkscape:zoom="0.55369367"
     inkscape:cx="-216.01566"
     inkscape:cy="272.90196"
     inkscape:window-x="0"
     inkscape:window-y="0"
     inkscape:window-maximized="0"
     inkscape:current-layer="g3011" /><g
     id="g3011"
     inkscape:groupmode="layer"
     inkscape:label="Huttcross_148x420Hori"
     transform="matrix(1.25,0,0,-1.25,-1055.1577,-40.99455)"><g
       id="g3506"
       style="fill:#ffffff"
       transform="translate(15.170843,-127.86854)"><g
         transform="translate(873.2894,88.0968)"
         id="g3333"
         style="fill:#ffffff"><path
           inkscape:connector-curvature="0"
           id="path3335"
           style="fill:#ffffff;fill-opacity:1;fill-rule:nonzero;stroke:none"
           d="m 0,0 c 0,-0.416 -0.165,-0.767 -0.494,-1.053 -0.313,-0.27 -0.68,-0.404 -1.1,-0.404 -0.425,0 -0.795,0.134 -1.113,0.404 C -3.036,-0.767 -3.2,-0.416 -3.2,0 c 0,0.139 0.016,0.258 0.047,0.357 -0.848,-0.008 -1.62,-0.448 -2.314,-1.321 -0.65,-0.824 -0.975,-1.673 -0.975,-2.546 0,-1.637 1.069,-2.456 3.206,-2.456 l 2.992,0 c -0.123,-0.635 -0.605,-0.952 -1.445,-0.952 l -2.195,0 c -1.369,0 -2.479,0.198 -3.332,0.595 -1.169,0.547 -1.748,1.437 -1.736,2.671 0.007,0.69 0.22,1.38 0.636,2.07 0.567,0.944 1.372,1.689 2.415,2.236 1.011,0.532 2.086,0.797 3.224,0.797 l 1.19,0 c 0.385,0 0.729,-0.146 1.032,-0.44 C -0.152,0.718 0,0.381 0,0" /></g><g
         transform="translate(879.9755,82.1305)"
         id="g3337"
         style="fill:#ffffff"><path
           inkscape:connector-curvature="0"
           id="path3339"
           style="fill:#ffffff;fill-opacity:1;fill-rule:nonzero;stroke:none"
           d="m 0,0 c 0,-0.278 -0.153,-0.512 -0.458,-0.702 -0.27,-0.166 -0.551,-0.25 -0.845,-0.25 l -2.278,0 c -0.603,0 -0.904,0.25 -0.904,0.75 0,0.127 0.026,0.263 0.077,0.41 l 0.672,1.933 -1.267,0 -0.66,-1.707 C -5.774,0.145 -6.014,0 -6.383,0 l -0.63,0 0.779,2.141 c -0.246,0.056 -0.445,0.18 -0.598,0.372 -0.152,0.193 -0.229,0.414 -0.229,0.663 0,0.457 0.212,0.809 0.637,1.059 0.353,0.207 0.773,0.31 1.261,0.31 l 0.963,0 -0.499,-1.452 3.289,0 L -2.492,0 0,0 z" /></g><g
         transform="translate(887.8691,82.1305)"
         id="g3341"
         style="fill:#ffffff"><path
           inkscape:connector-curvature="0"
           id="path3343"
           style="fill:#ffffff;fill-opacity:1;fill-rule:nonzero;stroke:none"
           d="m 0,0 c -0.083,-0.329 -0.266,-0.579 -0.547,-0.75 -0.222,-0.134 -0.458,-0.202 -0.708,-0.202 l -2.487,0 c -0.583,0 -0.874,0.187 -0.874,0.559 -0.309,-0.372 -0.728,-0.559 -1.255,-0.559 l -1.047,0 c -0.321,0 -0.571,0.084 -0.75,0.25 -0.166,0.155 -0.249,0.359 -0.249,0.613 0,0.143 0.027,0.289 0.083,0.44 l 0.999,2.742 2.16,0 L -5.788,0 l 1.208,0 1.106,3.093 2.136,0 L -2.421,0 0,0 z" /></g><g
         transform="translate(895.2869,82.1305)"
         id="g3345"
         style="fill:#ffffff"><path
           inkscape:connector-curvature="0"
           id="path3347"
           style="fill:#ffffff;fill-opacity:1;fill-rule:nonzero;stroke:none"
           d="m 0,0 c -0.087,-0.309 -0.27,-0.549 -0.547,-0.72 -0.254,-0.154 -0.549,-0.232 -0.887,-0.232 l -3.581,0 c -0.682,0 -1.255,0.115 -1.719,0.345 -0.587,0.29 -0.88,0.726 -0.88,1.309 0,0.063 0.004,0.129 0.012,0.196 0.079,0.71 0.448,1.265 1.106,1.666 0.579,0.353 1.263,0.529 2.052,0.529 l 1.499,0 c 0.338,0 0.625,-0.107 0.863,-0.321 0.238,-0.214 0.357,-0.476 0.357,-0.785 0,-0.313 -0.12,-0.579 -0.36,-0.797 -0.24,-0.218 -0.526,-0.327 -0.86,-0.327 -0.337,0 -0.623,0.11 -0.859,0.33 -0.236,0.22 -0.352,0.488 -0.348,0.806 l 0,0.142 -0.72,0 -0.464,-1.314 C -5.375,0.716 -5.395,0.615 -5.395,0.523 -5.395,0.174 -5.12,0 -4.568,0 L 0,0 z" /></g><g
         transform="translate(899.7363,82.1305)"
         id="g3349"
         style="fill:#ffffff"><path
           inkscape:connector-curvature="0"
           id="path3351"
           style="fill:#ffffff;fill-opacity:1;fill-rule:nonzero;stroke:none"
           d="M 0,0 C -0.103,-0.349 -0.317,-0.607 -0.642,-0.773 -0.876,-0.892 -1.13,-0.952 -1.404,-0.952 l -2.349,0 c -0.568,0 -0.851,0.238 -0.851,0.714 0,0.135 0.028,0.28 0.083,0.434 l 1.035,2.897 2.16,0 L -2.427,0 0,0 z m -0.428,5.532 c 0,-0.396 -0.154,-0.734 -0.461,-1.011 -0.308,-0.278 -0.677,-0.417 -1.11,-0.417 -0.44,0 -0.814,0.139 -1.121,0.417 -0.307,0.277 -0.461,0.615 -0.461,1.011 0,0.393 0.154,0.728 0.461,1.005 0.307,0.278 0.681,0.417 1.121,0.417 0.433,0 0.802,-0.139 1.11,-0.417 0.307,-0.277 0.461,-0.612 0.461,-1.005" /></g><g
         transform="translate(903.585,84.272)"
         id="g3353"
         style="fill:#ffffff"><path
           inkscape:connector-curvature="0"
           id="path3355"
           style="fill:#ffffff;fill-opacity:1;fill-rule:nonzero;stroke:none"
           d="m 0,0 -1.315,0 -0.416,-1.386 c -0.024,-0.087 -0.036,-0.167 -0.036,-0.238 0,-0.345 0.337,-0.517 1.012,-0.517 L 0,0 z M 3.837,-2.141 C 3.646,-2.776 3.161,-3.093 2.379,-3.093 l -2.254,0 c -0.643,0 -0.964,0.206 -0.964,0.618 -0.432,-0.491 -0.963,-0.737 -1.594,-0.737 -0.464,0 -0.841,0.143 -1.13,0.428 -0.29,0.286 -0.434,0.658 -0.434,1.118 0,0.829 0.317,1.484 0.951,1.963 0.575,0.437 1.287,0.655 2.136,0.655 l 3.396,0 -1.118,-3.093 2.469,0 z" /></g><g
         transform="translate(912.0139,82.1305)"
         id="g3357"
         style="fill:#ffffff"><path
           inkscape:connector-curvature="0"
           id="path3359"
           style="fill:#ffffff;fill-opacity:1;fill-rule:nonzero;stroke:none"
           d="m 0,0 c -0.099,-0.349 -0.327,-0.607 -0.684,-0.773 -0.25,-0.119 -0.518,-0.179 -0.803,-0.179 l -2.29,0 c -0.587,0 -0.881,0.201 -0.881,0.601 0,0.103 0.022,0.22 0.066,0.351 l 2.207,6.222 2.105,0 L -2.498,0 0,0 z" /></g><g
         transform="translate(926.0939,88.0968)"
         id="g3361"
         style="fill:#ffffff"><path
           inkscape:connector-curvature="0"
           id="path3363"
           style="fill:#ffffff;fill-opacity:1;fill-rule:nonzero;stroke:none"
           d="m 0,0 c 0,-0.416 -0.165,-0.767 -0.494,-1.053 -0.313,-0.27 -0.68,-0.404 -1.1,-0.404 -0.424,0 -0.795,0.134 -1.113,0.404 C -3.036,-0.767 -3.2,-0.416 -3.2,0 c 0,0.139 0.016,0.258 0.047,0.357 -0.848,-0.008 -1.62,-0.448 -2.314,-1.321 -0.65,-0.824 -0.975,-1.673 -0.975,-2.546 0,-1.637 1.069,-2.456 3.206,-2.456 l 2.992,0 c -0.123,-0.635 -0.605,-0.952 -1.445,-0.952 l -2.195,0 c -1.369,0 -2.479,0.198 -3.331,0.595 -1.17,0.547 -1.749,1.437 -1.737,2.671 0.007,0.69 0.22,1.38 0.636,2.07 0.567,0.944 1.372,1.689 2.415,2.236 1.011,0.532 2.086,0.797 3.224,0.797 l 1.19,0 c 0.385,0 0.729,-0.146 1.032,-0.44 C -0.152,0.718 0,0.381 0,0" /></g><g
         transform="translate(933.708,82.1305)"
         id="g3365"
         style="fill:#ffffff"><path
           inkscape:connector-curvature="0"
           id="path3367"
           style="fill:#ffffff;fill-opacity:1;fill-rule:nonzero;stroke:none"
           d="m 0,0 c -0.083,-0.329 -0.266,-0.579 -0.547,-0.75 -0.222,-0.134 -0.458,-0.202 -0.708,-0.202 l -2.487,0 c -0.583,0 -0.874,0.187 -0.874,0.559 -0.309,-0.372 -0.728,-0.559 -1.255,-0.559 l -1.047,0 c -0.321,0 -0.571,0.084 -0.75,0.25 -0.166,0.155 -0.249,0.359 -0.249,0.613 0,0.143 0.027,0.289 0.083,0.44 l 0.999,2.742 2.159,0 L -5.788,0 l 1.208,0 1.106,3.093 2.136,0 L -2.421,0 0,0 z" /></g><g
         transform="translate(940.8699,82.1305)"
         id="g3369"
         style="fill:#ffffff"><path
           inkscape:connector-curvature="0"
           id="path3371"
           style="fill:#ffffff;fill-opacity:1;fill-rule:nonzero;stroke:none"
           d="M 0,0 C -0.016,-0.266 -0.168,-0.491 -0.455,-0.675 -0.743,-0.86 -1.057,-0.952 -1.398,-0.952 l -4.521,0 c -0.868,0 -1.302,0.266 -1.302,0.797 0,0.048 0.004,0.099 0.011,0.155 0.032,0.238 0.159,0.422 0.381,0.553 0.191,0.115 0.409,0.171 0.655,0.167 0.428,-0.012 1.009,-0.248 1.742,-0.708 0.211,0.262 0.316,0.527 0.316,0.797 0,0.135 -0.086,0.442 -0.256,0.922 l -0.672,-0.613 -1.19,0 1.582,1.464 c -0.071,0.123 -0.121,0.224 -0.148,0.303 -0.052,0.147 -0.08,0.313 -0.084,0.5 l 1.464,1.558 c 0.658,-0.111 0.987,-0.41 0.987,-0.898 0,-0.286 -0.085,-0.549 -0.256,-0.791 0.147,-0.389 0.296,-0.777 0.446,-1.166 0.183,-0.5 0.274,-0.904 0.274,-1.214 C -1.969,0.533 -2.104,0.242 -2.373,0 L 0,0 z" /></g><g
         transform="translate(946.1462,82.1305)"
         id="g3373"
         style="fill:#ffffff"><path
           inkscape:connector-curvature="0"
           id="path3375"
           style="fill:#ffffff;fill-opacity:1;fill-rule:nonzero;stroke:none"
           d="m 0,0 c -0.186,-0.634 -0.682,-0.952 -1.487,-0.952 l -3.034,0 c -0.587,0 -0.88,0.206 -0.88,0.619 0,0.103 0.022,0.214 0.065,0.333 l 0.756,2.141 -0.976,0 0.375,0.952 c 0.694,0.179 1.209,0.407 1.546,0.684 0.381,0.314 0.788,0.881 1.22,1.702 l 1.16,0 -0.839,-2.386 1.535,0 C -0.805,2.459 -1.305,2.141 -2.058,2.141 l -0.393,0 L -3.194,0 0,0 z" /></g><g
         transform="translate(949.7867,84.272)"
         id="g3377"
         style="fill:#ffffff"><path
           inkscape:connector-curvature="0"
           id="path3379"
           style="fill:#ffffff;fill-opacity:1;fill-rule:nonzero;stroke:none"
           d="m 0,0 -1.362,0 -0.536,-1.523 c -0.027,-0.079 -0.041,-0.154 -0.041,-0.226 0,-0.341 0.317,-0.511 0.952,-0.511 0.075,0 0.14,0.002 0.196,0.006 L 0,0 z M 6.484,0.952 C 6.325,0.317 5.849,0 5.056,0 L 1.332,0 C 1.463,-0.087 1.57,-0.247 1.654,-0.479 1.737,-0.711 1.771,-0.912 1.755,-1.083 1.699,-1.745 1.408,-2.264 0.88,-2.641 0.377,-3.002 -0.278,-3.184 -1.083,-3.188 c -0.935,-0.008 -1.655,0.176 -2.159,0.553 -0.448,0.333 -0.672,0.771 -0.672,1.314 0,0.107 0.01,0.215 0.03,0.322 0.103,0.598 0.4,1.068 0.892,1.409 0.523,0.361 1.221,0.542 2.094,0.542 l 7.382,0 z" /></g><g
         transform="translate(964.8839,82.1305)"
         id="g3381"
         style="fill:#ffffff"><path
           inkscape:connector-curvature="0"
           id="path3383"
           style="fill:#ffffff;fill-opacity:1;fill-rule:nonzero;stroke:none"
           d="m 0,0 c -0.115,-0.634 -0.565,-0.952 -1.35,-0.952 l -2.415,0 c -0.191,0 -0.366,0.079 -0.527,0.235 -0.16,0.157 -0.241,0.334 -0.241,0.533 0,0.063 0.008,0.125 0.024,0.184 0.087,0.293 0.218,0.72 0.393,1.279 l -2.011,-1.683 c -0.508,-0.421 -0.942,-0.631 -1.303,-0.631 -0.539,0 -0.809,0.202 -0.809,0.607 0,0.131 0.03,0.273 0.09,0.428 l 0.475,1.279 -2.367,-1.975 c -0.202,-0.171 -0.454,-0.256 -0.756,-0.256 l -1.213,0 1.422,4.045 2.147,0 -0.672,-1.903 1.826,1.499 c 0.456,0.376 0.968,0.565 1.535,0.565 0.468,0 0.702,-0.181 0.702,-0.542 0,-0.103 -0.022,-0.216 -0.066,-0.339 L -5.544,1.19 -3.765,2.701 c 0.432,0.368 0.912,0.553 1.439,0.553 0.5,0 0.75,-0.212 0.75,-0.637 0,-0.142 -0.032,-0.301 -0.096,-0.476 L -2.439,0 0,0 z" /></g><g
         transform="translate(978.9996,88.0968)"
         id="g3385"
         style="fill:#ffffff"><path
           inkscape:connector-curvature="0"
           id="path3387"
           style="fill:#ffffff;fill-opacity:1;fill-rule:nonzero;stroke:none"
           d="m 0,0 c 0,-0.416 -0.165,-0.767 -0.494,-1.053 -0.313,-0.27 -0.68,-0.404 -1.1,-0.404 -0.425,0 -0.795,0.134 -1.113,0.404 C -3.036,-0.767 -3.2,-0.416 -3.2,0 c 0,0.139 0.016,0.258 0.047,0.357 -0.848,-0.008 -1.62,-0.448 -2.314,-1.321 -0.65,-0.824 -0.975,-1.673 -0.975,-2.546 0,-1.637 1.069,-2.456 3.206,-2.456 l 2.992,0 c -0.123,-0.635 -0.605,-0.952 -1.445,-0.952 l -2.195,0 c -1.369,0 -2.479,0.198 -3.332,0.595 -1.169,0.547 -1.748,1.437 -1.736,2.671 0.007,0.69 0.22,1.38 0.636,2.07 0.567,0.944 1.372,1.689 2.415,2.236 1.011,0.532 2.086,0.797 3.224,0.797 l 1.19,0 c 0.385,0 0.729,-0.146 1.032,-0.44 C -0.152,0.718 0,0.381 0,0" /></g><g
         transform="translate(981.6586,81.0182)"
         id="g3389"
         style="fill:#ffffff"><path
           inkscape:connector-curvature="0"
           id="path3391"
           style="fill:#ffffff;fill-opacity:1;fill-rule:nonzero;stroke:none"
           d="m 0,0 c -0.262,0 -0.505,-0.148 -0.729,-0.443 -0.224,-0.296 -0.336,-0.59 -0.336,-0.884 0,-0.261 0.115,-0.471 0.345,-0.63 L 0,0 z M 4.979,1.112 C 4.745,0.478 4.307,0.161 3.664,0.161 l -1.451,0 c -0.345,-0.936 -0.708,-1.63 -1.089,-2.082 -0.531,-0.627 -1.191,-0.94 -1.981,-0.94 -0.495,0 -0.878,0.145 -1.148,0.434 -0.234,0.254 -0.351,0.581 -0.351,0.982 0,0.317 0.069,0.624 0.206,0.922 0.136,0.297 0.316,0.525 0.538,0.684 l -0.452,0 c -0.262,0 -0.479,0.08 -0.651,0.241 -0.173,0.16 -0.259,0.361 -0.259,0.603 0,0.111 0.02,0.224 0.059,0.339 l 1.035,2.862 2.16,0 -1.113,-3.094 1.208,0 1.094,3.094 2.148,0 -1.095,-3.094 2.457,0 z" /></g><g
         transform="translate(994.0552,82.1305)"
         id="g3393"
         style="fill:#ffffff"><path
           inkscape:connector-curvature="0"
           id="path3395"
           style="fill:#ffffff;fill-opacity:1;fill-rule:nonzero;stroke:none"
           d="m 0,0 c -0.087,-0.309 -0.27,-0.549 -0.547,-0.72 -0.254,-0.154 -0.549,-0.232 -0.887,-0.232 l -3.581,0 c -0.682,0 -1.255,0.115 -1.719,0.345 -0.587,0.29 -0.88,0.726 -0.88,1.309 0,0.063 0.004,0.129 0.012,0.196 0.079,0.71 0.448,1.265 1.106,1.666 0.579,0.353 1.263,0.529 2.053,0.529 l 1.499,0 c 0.337,0 0.624,-0.107 0.862,-0.321 0.238,-0.214 0.357,-0.476 0.357,-0.785 0,-0.313 -0.12,-0.579 -0.36,-0.797 -0.24,-0.218 -0.526,-0.327 -0.859,-0.327 -0.338,0 -0.624,0.11 -0.86,0.33 -0.236,0.22 -0.352,0.488 -0.348,0.806 l 0,0.142 -0.72,0 -0.464,-1.314 C -5.375,0.716 -5.395,0.615 -5.395,0.523 -5.395,0.174 -5.12,0 -4.568,0 L 0,0 z" /></g><g
         transform="translate(998.576,82.1305)"
         id="g3397"
         style="fill:#ffffff"><path
           inkscape:connector-curvature="0"
           id="path3399"
           style="fill:#ffffff;fill-opacity:1;fill-rule:nonzero;stroke:none"
           d="m 0,0 c -0.099,-0.349 -0.327,-0.607 -0.684,-0.773 -0.25,-0.119 -0.518,-0.179 -0.803,-0.179 l -2.29,0 c -0.587,0 -0.881,0.201 -0.881,0.601 0,0.103 0.022,0.22 0.066,0.351 l 2.207,6.222 2.105,0 L -2.498,0 0,0 z" /></g><g
         transform="translate(1006.0056,82.1305)"
         id="g3401"
         style="fill:#ffffff"><path
           inkscape:connector-curvature="0"
           id="path3403"
           style="fill:#ffffff;fill-opacity:1;fill-rule:nonzero;stroke:none"
           d="m 0,0 c -0.083,-0.305 -0.274,-0.545 -0.571,-0.72 -0.266,-0.154 -0.569,-0.232 -0.91,-0.232 l -3.313,0 c -1.928,0 -2.891,0.581 -2.891,1.743 0,0.746 0.329,1.331 0.987,1.755 0.567,0.365 1.241,0.547 2.023,0.547 l 0.862,0 c 0.504,0 0.946,-0.077 1.327,-0.232 0.507,-0.206 0.773,-0.519 0.797,-0.94 0.02,-0.424 -0.185,-0.777 -0.613,-1.058 l -1.969,0 0.642,1.278 -1.255,0 -0.487,-1.433 C -5.399,0.625 -5.413,0.549 -5.413,0.482 -5.413,0.161 -5.155,0 -4.64,0 L 0,0 z" /></g><g
         transform="translate(1013.1557,82.1305)"
         id="g3405"
         style="fill:#ffffff"><path
           inkscape:connector-curvature="0"
           id="path3407"
           style="fill:#ffffff;fill-opacity:1;fill-rule:nonzero;stroke:none"
           d="M 0,0 C -0.016,-0.266 -0.168,-0.491 -0.455,-0.675 -0.743,-0.86 -1.057,-0.952 -1.398,-0.952 l -4.521,0 c -0.868,0 -1.302,0.266 -1.302,0.797 0,0.048 0.004,0.099 0.011,0.155 0.032,0.238 0.159,0.422 0.381,0.553 0.191,0.115 0.409,0.171 0.655,0.167 0.428,-0.012 1.009,-0.248 1.742,-0.708 0.211,0.262 0.316,0.527 0.316,0.797 0,0.135 -0.086,0.442 -0.256,0.922 l -0.672,-0.613 -1.19,0 1.582,1.464 c -0.071,0.123 -0.121,0.224 -0.148,0.303 -0.052,0.147 -0.08,0.313 -0.084,0.5 l 1.464,1.558 c 0.658,-0.111 0.987,-0.41 0.987,-0.898 0,-0.286 -0.085,-0.549 -0.256,-0.791 0.147,-0.389 0.296,-0.777 0.446,-1.166 0.183,-0.5 0.274,-0.904 0.274,-1.214 C -1.969,0.533 -2.104,0.242 -2.373,0 L 0,0 z" /></g><g
         transform="translate(843.5036,89.501)"
         id="g3409"
         style="fill:#ffffff"><path
           inkscape:connector-curvature="0"
           id="path3411"
           style="fill:#ffffff;fill-opacity:1;fill-rule:nonzero;stroke:none"
           d="m 0,0 c -0.519,0.502 -1.109,0.754 -1.767,0.754 l -2.037,0 c -1.949,0 -3.788,-0.455 -5.52,-1.365 -1.785,-0.937 -3.164,-2.214 -4.134,-3.829 -0.713,-1.182 -1.077,-2.363 -1.09,-3.544 -0.02,-2.112 0.971,-3.636 2.974,-4.573 1.459,-0.679 3.36,-1.019 5.703,-1.019 l 3.758,0 c 1.439,0 2.264,0.544 2.475,1.63 l -5.123,0 c -3.66,0 -5.489,1.402 -5.489,4.206 0,1.494 0.556,2.947 1.67,4.359 1.188,1.493 2.508,2.247 3.961,2.261 -0.054,-0.17 -0.081,-0.374 -0.081,-0.611 0,-0.713 0.282,-1.314 0.845,-1.803 0.543,-0.462 1.178,-0.692 1.905,-0.692 0.719,0 1.347,0.23 1.884,0.692 0.563,0.489 0.845,1.09 0.845,1.803 C 0.779,-1.08 0.519,-0.503 0,0" /></g><g
         transform="translate(846.8813,95.0729)"
         id="g3413"
         style="fill:#ffffff"><path
           inkscape:connector-curvature="0"
           id="path3415"
           style="fill:#ffffff;fill-opacity:1;fill-rule:nonzero;stroke:none"
           d="m 0,0 -0.911,-2.359 4.52,0 -2.4,-2.931 c 0.673,-0.06 1.302,-0.32 1.887,-0.778 0.695,-0.552 1.043,-1.219 1.043,-2.003 0,-0.673 -0.193,-1.25 -0.579,-1.73 -0.398,-0.497 -0.906,-0.762 -1.524,-0.795 0.1,0.221 0.149,0.464 0.149,0.729 0,0.574 -0.226,1.054 -0.678,1.44 -0.431,0.364 -0.939,0.546 -1.524,0.546 -0.574,0 -1.076,-0.182 -1.506,-0.546 -0.453,-0.386 -0.679,-0.866 -0.679,-1.44 0,-0.569 0.226,-1.049 0.679,-1.441 0.43,-0.369 0.938,-0.568 1.523,-0.596 1.126,-0.049 2.125,-0.005 2.997,0.133 1.374,0.215 2.469,0.651 3.286,1.308 0.977,0.789 1.465,1.835 1.465,3.137 0,0.613 -0.218,1.225 -0.654,1.838 -0.403,0.574 -0.891,1.012 -1.465,1.316 L 8.493,0 0,0 z" /></g></g></g></svg>