<?xml version="1.0" encoding="UTF-8" standalone="no"?>
<!-- Created with Inkscape (http://www.inkscape.org/) -->

<svg
   xmlns:dc="http://purl.org/dc/elements/1.1/"
   xmlns:cc="http://creativecommons.org/ns#"
   xmlns:rdf="http://www.w3.org/1999/02/22-rdf-syntax-ns#"
   xmlns:svg="http://www.w3.org/2000/svg"
   xmlns="http://www.w3.org/2000/svg"
   xmlns:sodipodi="http://sodipodi.sourceforge.net/DTD/sodipodi-0.dtd"
   xmlns:inkscape="http://www.inkscape.org/namespaces/inkscape"
   id="svg2"
   version="1.1"
   inkscape:version="0.48.2 r9819"
   width="141.55438"
   height="28.715"
   xml:space="preserve"
   sodipodi:docname="wheelworks.svg"><metadata
     id="metadata8"><rdf:RDF><cc:Work
         rdf:about=""><dc:format>image/svg+xml</dc:format><dc:type
           rdf:resource="http://purl.org/dc/dcmitype/StillImage" /><dc:title /></cc:Work></rdf:RDF></metadata><defs
     id="defs6"><clipPath
       clipPathUnits="userSpaceOnUse"
       id="clipPath16"><path
         d="m 0,0 1190.551,0 0,420.945 L 0,420.945 0,0 z"
         id="path18"
         inkscape:connector-curvature="0" /></clipPath><clipPath
       clipPathUnits="userSpaceOnUse"
       id="clipPath24"><path
         d="m -19.6648,432.174 1261.1348,0 0,-443.4029 -1261.1348,0 0,443.4029 z"
         id="path26"
         inkscape:connector-curvature="0" /></clipPath><clipPath
       clipPathUnits="userSpaceOnUse"
       id="clipPath42"><path
         d="m -9.50391,430.449 1209.56391,0 0,-444.9136 -1209.56391,0 0,444.9136 z"
         id="path44"
         inkscape:connector-curvature="0" /></clipPath><clipPath
       clipPathUnits="userSpaceOnUse"
       id="clipPath136"><path
         d="m 0,0 1190.551,0 0,420.945 L 0,420.945 0,0 z"
         id="path138"
         inkscape:connector-curvature="0" /></clipPath><clipPath
       clipPathUnits="userSpaceOnUse"
       id="clipPath248"><path
         d="m 0,0 1190.551,0 0,420.945 L 0,420.945 0,0 z"
         id="path250"
         inkscape:connector-curvature="0" /></clipPath><clipPath
       clipPathUnits="userSpaceOnUse"
       id="clipPath272"><path
         d="m 0,0 1190.551,0 0,420.945 L 0,420.945 0,0 z"
         id="path274"
         inkscape:connector-curvature="0" /></clipPath><clipPath
       clipPathUnits="userSpaceOnUse"
       id="clipPath304"><path
         d="m 0,0 1190.551,0 0,420.945 L 0,420.945 0,0 z"
         id="path306"
         inkscape:connector-curvature="0" /></clipPath><clipPath
       clipPathUnits="userSpaceOnUse"
       id="clipPath324"><path
         d="m 0,0 1190.551,0 0,420.945 L 0,420.945 0,0 z"
         id="path326"
         inkscape:connector-curvature="0" /></clipPath></defs><sodipodi:namedview
     pagecolor="#ffffff"
     bordercolor="#666666"
     borderopacity="1"
     objecttolerance="10"
     gridtolerance="10"
     guidetolerance="10"
     inkscape:pageopacity="0"
     inkscape:pageshadow="2"
     inkscape:window-width="1272"
     inkscape:window-height="660"
     id="namedview4"
     showgrid="false"
     fit-margin-top="0"
     fit-margin-left="0"
     fit-margin-right="0"
     fit-margin-bottom="0"
     inkscape:zoom="0.39152055"
     inkscape:cx="885.18672"
     inkscape:cy="-306.82568"
     inkscape:window-x="0"
     inkscape:window-y="0"
     inkscape:window-maximized="0"
     inkscape:current-layer="g10" /><g
     id="g10"
     inkscape:groupmode="layer"
     inkscape:label="Huttcross_148x420Hori"
     transform="matrix(1.25,0,0,-1.25,-25.253,504.53413)"><g
       id="g3524"
       style="fill:#ffffff"
       transform="translate(-672.396,306.9755)"><g
         id="g268"
         style="fill:#ffffff"><g
           clip-path="url(#clipPath272)"
           id="g270"
           style="fill:#ffffff"><g
             transform="translate(715.5714,85.1658)"
             id="g276"
             style="fill:#ffffff"><path
               id="path278"
               style="fill:#ffffff;fill-opacity:1;fill-rule:nonzero;stroke:none"
               d="m 0,0 c 0,6.351 -5.135,11.486 -11.486,11.486 -6.352,0 -11.487,-5.135 -11.487,-11.486 0,-6.351 5.135,-11.486 11.487,-11.486 C -5.135,-11.486 0,-6.351 0,0 m -3.243,3.514 c 0.045,-5.046 -4.009,-10.361 -6.712,-10.361 -0.45,0 -2.027,0.135 -1.982,2.973 -0.631,-1.171 -1.757,-2.973 -3.468,-2.973 -1.307,0 -2.163,1.036 -2.163,2.613 0,1.171 0.496,2.838 0.991,4.279 0.451,1.306 0.946,2.928 0.946,3.919 0,0.676 -0.45,1.216 -1.036,1.216 -0.901,0 -2.027,-1.351 -2.027,-2.522 0,-1.036 0.856,-1.487 0.856,-1.802 0,-0.09 -0.63,-1.036 -1.036,-1.036 -0.18,0 -1.036,0.27 -1.036,1.666 0,2.253 1.892,4.505 3.874,4.505 1.487,0 2.613,-1.351 2.613,-3.153 0,-1.081 -0.271,-2.252 -1.081,-4.37 -0.361,-1.081 -0.766,-2.342 -0.766,-3.108 0,-0.54 0.27,-0.901 0.766,-0.901 1.036,0 2.072,1.757 2.927,4.865 l 0.856,3.108 c 0.451,1.622 0.811,2.523 1.126,3.244 0.091,0.225 1.712,0.315 1.937,0.315 0.226,0 0.361,0 0.361,-0.135 0,-0.09 -0.271,-1.126 -0.406,-1.577 L -8.919,-0.36 c -0.45,-1.712 -0.721,-3.244 -0.721,-3.964 0,-0.766 0.316,-1.217 0.856,-1.217 1.036,0 3.919,2.793 3.919,6.352 0,1.036 -0.315,2.207 -0.811,3.288 -0.135,0.27 -0.225,0.496 -0.225,0.586 -0.045,0.54 1.397,1.306 1.757,1.306 0.405,0 0.901,-1.351 0.901,-2.477"
               inkscape:connector-curvature="0" /></g><g
             transform="translate(727.7335,81.5171)"
             id="g280"
             style="fill:#ffffff"><path
               id="path282"
               style="fill:#ffffff;fill-opacity:1;fill-rule:nonzero;stroke:none"
               d="m 0,0 c -0.135,0 -0.27,0.045 -0.36,0.135 -0.135,0.09 -0.226,0.225 -0.271,0.406 l -1.351,4.279 -0.405,0 -1.397,-4.279 C -3.829,0.36 -3.919,0.225 -4.054,0.135 -4.144,0.045 -4.279,0 -4.414,0 l -1.217,0 c -0.135,0 -0.27,0.045 -0.36,0.135 -0.135,0.09 -0.18,0.225 -0.27,0.406 l -1.892,6.306 1.622,0 1.306,-5.09 0.405,0 1.397,4.549 c 0.045,0.18 0.135,0.316 0.27,0.406 0.135,0.09 0.225,0.135 0.36,0.135 l 1.081,0 c 0.135,0 0.271,-0.045 0.361,-0.135 0.135,-0.09 0.225,-0.226 0.27,-0.406 l 1.351,-4.549 0.406,0 1.306,5.09 1.622,0 L 1.712,0.541 C 1.667,0.36 1.577,0.225 1.441,0.135 1.306,0.045 1.216,0 1.081,0 L 0,0 z"
               inkscape:connector-curvature="0" /></g></g></g><g
         transform="translate(737.6434,81.5171)"
         id="g284"
         style="fill:#ffffff"><path
           id="path286"
           style="fill:#ffffff;fill-opacity:1;fill-rule:nonzero;stroke:none"
           d="m 0,0 0,2.748 -3.649,0 0,-2.748 -1.441,0 0,6.847 1.441,0 0,-2.703 3.649,0 0,2.703 1.441,0 L 1.441,0 0,0 z"
           inkscape:connector-curvature="0" /></g><g
         transform="translate(740.7966,81.5171)"
         id="g288"
         style="fill:#ffffff"><path
           id="path290"
           style="fill:#ffffff;fill-opacity:1;fill-rule:nonzero;stroke:none"
           d="m 0,0 0,6.847 5.946,0 0,-1.397 -4.46,0 0,-1.306 4.46,0 0,-1.396 -4.46,0 0,-1.352 4.46,0 L 5.946,0 0,0 z"
           inkscape:connector-curvature="0" /></g><g
         transform="translate(748.3641,81.5171)"
         id="g292"
         style="fill:#ffffff"><path
           id="path294"
           style="fill:#ffffff;fill-opacity:1;fill-rule:nonzero;stroke:none"
           d="m 0,0 0,6.847 5.946,0 0,-1.397 -4.505,0 0,-1.306 4.505,0 0,-1.396 -4.505,0 0,-1.352 4.505,0 L 5.946,0 0,0 z"
           inkscape:connector-curvature="0" /></g><g
         transform="translate(755.9318,81.5171)"
         id="g296"
         style="fill:#ffffff"><path
           id="path298"
           style="fill:#ffffff;fill-opacity:1;fill-rule:nonzero;stroke:none"
           d="m 0,0 0,6.847 1.441,0 0,-5.451 4.505,0 L 5.946,0 0,0 z"
           inkscape:connector-curvature="0" /></g><g
         id="g300"
         style="fill:#ffffff"><g
           clip-path="url(#clipPath304)"
           id="g302"
           style="fill:#ffffff"><g
             transform="translate(770.0759,81.5171)"
             id="g308"
             style="fill:#ffffff"><path
               id="path310"
               style="fill:#ffffff;fill-opacity:1;fill-rule:nonzero;stroke:none"
               d="m 0,0 c -0.135,0 -0.27,0.045 -0.36,0.135 -0.136,0.09 -0.226,0.225 -0.271,0.406 l -1.351,4.279 -0.405,0 -1.397,-4.279 C -3.829,0.36 -3.919,0.225 -4.054,0.135 -4.144,0.045 -4.279,0 -4.414,0 l -1.217,0 c -0.135,0 -0.27,0.045 -0.36,0.135 -0.135,0.09 -0.18,0.225 -0.27,0.406 l -1.892,6.306 1.621,0 1.307,-5.09 0.405,0 1.397,4.549 c 0.045,0.18 0.135,0.316 0.27,0.406 0.135,0.09 0.225,0.135 0.36,0.135 l 1.081,0 c 0.135,0 0.271,-0.045 0.361,-0.135 0.135,-0.09 0.225,-0.226 0.27,-0.406 l 1.351,-4.549 0.406,0 1.306,5.09 1.622,0 L 1.712,0.541 C 1.667,0.36 1.577,0.225 1.441,0.135 1.306,0.045 1.216,0 1.081,0 L 0,0 z"
               inkscape:connector-curvature="0" /></g><path
             id="path312"
             style="fill:#ffffff;fill-opacity:1;fill-rule:nonzero;stroke:none"
             d="m 776.337,82.913 3.649,0 0,4.054 -3.649,0 0,-4.054 z m -0.54,-1.396 c -0.271,0 -0.496,0.09 -0.631,0.225 -0.135,0.135 -0.225,0.361 -0.225,0.631 l 0,5.09 c 0,0.27 0.09,0.496 0.225,0.631 0.135,0.135 0.36,0.225 0.631,0.225 l 4.774,0 c 0.271,0 0.496,-0.09 0.631,-0.225 0.135,-0.135 0.225,-0.361 0.225,-0.631 l 0,-5.09 c 0,-0.27 -0.09,-0.496 -0.225,-0.631 -0.135,-0.135 -0.36,-0.225 -0.631,-0.225 l -4.774,0 z"
             inkscape:connector-curvature="0" /><path
             id="path314"
             style="fill:#ffffff;fill-opacity:1;fill-rule:nonzero;stroke:none"
             d="m 784.625,85.031 3.649,0 0,1.937 -3.649,0 0,-1.937 z m 3.649,-3.514 0,2.072 -3.649,0 0,-2.072 -1.441,0 0,6.847 5.676,0 c 0.27,0 0.495,-0.09 0.63,-0.225 0.135,-0.135 0.225,-0.361 0.225,-0.631 l 0,-2.432 c 0,-0.135 -0.045,-0.271 -0.135,-0.361 -0.09,-0.09 -0.225,-0.18 -0.36,-0.225 l -0.09,-0.045 0,-0.225 0.135,-0.045 c 0.135,0 0.27,-0.09 0.36,-0.18 0.09,-0.136 0.135,-0.271 0.135,-0.361 l 0,-2.027 -1.486,0 0,-0.09 z"
             inkscape:connector-curvature="0" /></g></g><g
         transform="translate(796.4272,81.5171)"
         id="g316"
         style="fill:#ffffff"><path
           id="path318"
           style="fill:#ffffff;fill-opacity:1;fill-rule:nonzero;stroke:none"
           d="m 0,0 -2.117,2.793 -1.396,0 0,-2.793 -1.487,0 0,6.847 1.487,0 0,-2.838 1.396,0 L 0,6.847 1.712,6.847 -0.946,3.423 1.712,0 0,0 z"
           inkscape:connector-curvature="0" /></g><g
         transform="translate(800.1659,81.5171)"
         id="g328"
         style="fill:#ffffff"><path
           inkscape:connector-curvature="0"
           id="path330"
           style="fill:#ffffff;fill-opacity:1;fill-rule:nonzero;stroke:none"
           d="M 0,0 C -0.27,0 -0.495,0.09 -0.631,0.225 -0.766,0.36 -0.856,0.586 -0.856,0.856 l 0,1.126 1.442,0 0,-0.631 3.648,0 0,1.352 -4.234,0 c -0.27,0 -0.495,0.09 -0.631,0.225 -0.135,0.135 -0.225,0.36 -0.225,0.631 l 0,2.342 c 0,0.27 0.09,0.495 0.225,0.631 C -0.496,6.667 -0.27,6.757 0,6.757 l 4.775,0 c 0.27,0 0.495,-0.09 0.63,-0.225 C 5.541,6.396 5.631,6.171 5.631,5.901 l 0,-1.126 -1.442,0 0,0.675 -3.648,0 0,-1.396 4.234,0 c 0.27,0 0.495,-0.045 0.676,-0.18 C 5.586,3.739 5.676,3.559 5.676,3.288 l 0,-2.387 C 5.676,0.631 5.586,0.405 5.451,0.27 5.315,0.135 5.09,0.045 4.82,0.045 L 0,0.045 0,0 z" /></g></g></g></svg>